<svg width="240" height="80" viewBox="0 0 240 80" fill="none" xmlns="http://www.w3.org/2000/svg">
<g clip-path="url(#clip0_367_314)">
<rect opacity="0.1" width="240" height="80" rx="30" fill="#0117E6"/>
<path d="M37.0497 26.0664C30.6083 25.0464 25.0464 30.6083 26.0664 37.0497L26.2958 38.4986C26.4534 39.4933 26.4534 40.5067 26.2958 41.5015L26.0664 42.9503C25.0464 49.3917 30.6083 54.9536 37.0497 53.9336L38.4986 53.7042C39.4933 53.5467 40.5067 53.5467 41.5015 53.7042L42.9503 53.9336C49.3917 54.9536 54.9536 49.3917 53.9336 42.9503L53.7042 41.5014C53.5467 40.5067 53.5467 39.4933 53.7042 38.4986L53.9336 37.0497C54.9536 30.6083 49.3917 25.0464 42.9503 26.0664L41.5015 26.2958C40.5067 26.4534 39.4933 26.4534 38.4986 26.2958L37.0497 26.0664Z" fill="#0117E6"/>
<path fill-rule="evenodd" clip-rule="evenodd" d="M14.4783 20.6802C15.5366 17.7926 17.7926 15.5366 20.6802 14.4783C25.7032 12.6375 33.9548 10 40 10C46.0452 10 54.2968 12.6375 59.3198 14.4783C62.2074 15.5366 64.4634 17.7926 65.5217 20.6802C67.3625 25.7032 70 33.9548 70 40C70 46.0451 67.3625 54.2968 65.5217 59.3198C64.4634 62.2074 62.2074 64.4634 59.3198 65.5217C54.2968 67.3625 46.0451 70 40 70C33.9548 70 25.7032 67.3625 20.6802 65.5217C17.7926 64.4634 15.5366 62.2074 14.4783 59.3198C12.6375 54.2968 10 46.0452 10 40C10 33.9548 12.6375 25.7032 14.4783 20.6802ZM62 40C62 52.1503 52.1503 62 40 62C27.8497 62 18 52.1503 18 40C18 27.8497 27.8497 18 40 18C52.1503 18 62 27.8497 62 40Z" fill="#0117E6"/>
<mask id="mask0_367_314" style="mask-type:alpha" maskUnits="userSpaceOnUse" x="36" y="0" width="204" height="80">
<path d="M240 30C240 13.4315 226.569 0 210 0H60L36 80H210C226.569 80 240 66.5685 240 50V30Z" fill="#232323"/>
</mask>
<g mask="url(#mask0_367_314)">
<rect width="240" height="80" fill="#E6FFB9"/>
<path d="M199.308 43V48H191.628V58H199.308V63H177.548V58H185.228V48H177.548V43H199.308Z" fill="#0ABF84"/>
<path d="M172.962 43V63H165.122L155.002 50.12V63H148.602V43H156.802L166.562 55.68V43H172.962Z" fill="#0ABF84"/>
<path d="M143.384 43V60.68L141.064 63H120.024V57.64H136.984V54.44H123.584V49.72H136.984V43H143.384Z" fill="#0ABF84"/>
<path d="M113.283 43L115.603 45.32V60.68L113.283 63H92.403L90.083 60.68V45.32L92.403 43H113.283ZM109.203 48.36H96.483V57.64H109.203V48.36Z" fill="#0ABF84"/>
<path d="M92.6921 38V33H100.372V23H92.6921V18H114.452V23H106.772V33H114.452V38H92.6921Z" fill="#0ABF84"/>
<path d="M119.037 38V18H126.877L136.997 30.88V18H143.397V38H135.197L125.437 25.32V38H119.037Z" fill="#0ABF84"/>
<path d="M148.616 38V20.32L150.936 18H171.976V23.36H155.016V26.56H168.416V31.28H155.016V38H148.616Z" fill="#0ABF84"/>
<path d="M178.717 38L176.397 35.68V20.32L178.717 18H199.597L201.917 20.32V35.68L199.597 38H178.717ZM182.797 32.64H195.517V23.36H182.797V32.64Z" fill="#0ABF84"/>
<path d="M37.0497 26.0664C30.6083 25.0464 25.0464 30.6083 26.0664 37.0497L26.2958 38.4986C26.4534 39.4933 26.4534 40.5067 26.2958 41.5015L26.0664 42.9503C25.0464 49.3917 30.6083 54.9536 37.0497 53.9336L38.4986 53.7042C39.4933 53.5467 40.5067 53.5467 41.5015 53.7042L42.9503 53.9336C49.3917 54.9536 54.9536 49.3917 53.9336 42.9503L53.7042 41.5014C53.5467 40.5067 53.5467 39.4933 53.7042 38.4986L53.9336 37.0497C54.9536 30.6083 49.3917 25.0464 42.9503 26.0664L41.5015 26.2958C40.5067 26.4534 39.4933 26.4534 38.4986 26.2958L37.0497 26.0664Z" fill="#C4F244"/>
<path fill-rule="evenodd" clip-rule="evenodd" d="M14.4783 20.6802C15.5366 17.7926 17.7926 15.5366 20.6802 14.4783C25.7032 12.6375 33.9548 10 40 10C46.0452 10 54.2968 12.6375 59.3198 14.4783C62.2074 15.5366 64.4634 17.7926 65.5217 20.6802C67.3625 25.7032 70 33.9548 70 40C70 46.0451 67.3625 54.2968 65.5217 59.3198C64.4634 62.2074 62.2074 64.4634 59.3198 65.5217C54.2968 67.3625 46.0451 70 40 70C33.9548 70 25.7032 67.3625 20.6802 65.5217C17.7926 64.4634 15.5366 62.2074 14.4783 59.3198C12.6375 54.2968 10 46.0452 10 40C10 33.9548 12.6375 25.7032 14.4783 20.6802ZM62 40C62 52.1503 52.1503 62 40 62C27.8497 62 18 52.1503 18 40C18 27.8497 27.8497 18 40 18C52.1503 18 62 27.8497 62 40Z" fill="#C4F244"/>
</g>
</g>
<defs>
<clipPath id="clip0_367_314">
<rect width="240" height="80" fill="white"/>
</clipPath>
</defs>
</svg>
