<?xml version="1.0" encoding="UTF-8"?>
<svg width="180px" height="180px" viewBox="0 0 180 180" version="1.1" xmlns="http://www.w3.org/2000/svg" xmlns:xlink="http://www.w3.org/1999/xlink">
    <!-- Generator: Sketch 49.3 (51167) - http://www.bohemiancoding.com/sketch -->
    <title>A Mark</title>
    <desc>Created with Sketch.</desc>
    <defs></defs>
    <g id="A-Mark" stroke="none" stroke-width="1" fill="none" fill-rule="evenodd">
        <path d="M90,180 C40.3739699,180 0,139.62603 0,90 C0,40.3739699 40.3739699,0 90,0 C139.62603,0 180,40.3739699 180,90 C180,139.62603 139.62603,180 90,180 Z M90,11.8199429 C46.8926684,11.8199429 11.8199429,46.8897134 11.8199429,90 C11.8199429,133.107332 46.8926684,168.180057 90,168.180057 C133.107332,168.180057 168.180057,133.107332 168.180057,90 C168.180057,46.8897134 133.107332,11.8199429 90,11.8199429 Z M75.2259579,154.81052 L75.2259579,142.990577 L104.775815,142.990577 L104.775815,154.81052 L75.2259579,154.81052 Z M149.10001,123.308304 L119.550153,123.308304 L104.775224,97.7181272 L75.2253669,97.7181272 L90.0002955,72.1249959 L75.2253669,46.5348196 L90.0002955,20.9446433 L149.10001,123.308304 Z M60.4501428,123.308304 L30.9002856,123.308304 L45.6752142,97.7181272 L60.4501428,123.308304 Z M60.4501428,72.1264734 L30.9002856,72.1264734 L45.6752142,46.5362971 L60.4501428,72.1264734 Z" id="A-mark" fill="#000000"></path>
    </g>
</svg>