<?xml version="1.0" encoding="UTF-8"?>
<svg width="100px" height="100px" viewBox="0 0 100 100" version="1.1" xmlns="http://www.w3.org/2000/svg" xmlns:xlink="http://www.w3.org/1999/xlink">
    <title>a-mark</title>
    <defs>
        <linearGradient x1="50%" y1="0%" x2="50%" y2="100%" id="linearGradient-1">
            <stop stop-color="#22262B" offset="0%"></stop>
            <stop stop-color="#383A40" offset="100%"></stop>
        </linearGradient>
    </defs>
    <g id="README" stroke="none" stroke-width="1" fill="none" fill-rule="evenodd" stroke-opacity="0.3">
        <g id="a-mark" fill="url(#linearGradient-1)" stroke="#000000">
            <path d="M50,0.5 C63.6471583,0.5 76.0220349,6.05162917 84.9852029,15.0147971 C93.9483708,23.9779651 99.5,36.3528417 99.5,50 C99.5,63.6471582 93.9483708,76.0220349 84.9852029,84.9852029 C76.0220349,93.9483708 63.6471583,99.5 50,99.5 C36.3528417,99.5 23.9779651,93.9483708 15.0147971,84.9852029 C6.05162917,76.0220349 0.5,63.6471583 0.5,50 C0.5,36.3528417 6.05162917,23.9779651 15.0147971,15.0147971 C23.9779651,6.05162917 36.3528417,0.5 50,0.5 Z M58.7087861,78.9392094 L41.2921988,78.9392094 L41.2921988,86.5058444 L58.7087861,86.5058444 L58.7087861,78.9392094 Z M50.0001704,10.6359241 L41.214516,25.8526776 L49.422818,40.0694566 L40.9258824,54.7878484 L57.9197869,54.7878484 L66.1280808,69.0046133 L83.6993645,69.0046133 L50.0001704,10.6359241 Z M25.375119,53.2878704 L16.3007872,69.0046133 L34.4494508,69.0046133 L25.375119,53.2878704 Z M25.375119,24.8535204 L16.3007872,40.570263 L34.4494508,40.570263 L25.375119,24.8535204 Z" id="custom-style-booo"></path>
        </g>
    </g>
</svg>