<?xml version="1.0" encoding="UTF-8"?>
<svg width="120px" height="120px" viewBox="0 0 120 120" version="1.1" xmlns="http://www.w3.org/2000/svg" xmlns:xlink="http://www.w3.org/1999/xlink">
    <title>a-mark</title>
    <defs>
        <linearGradient x1="50%" y1="0%" x2="50%" y2="100%" id="linearGradient-1">
            <stop stop-color="#22262B" offset="0%"></stop>
            <stop stop-color="#383A40" offset="100%"></stop>
        </linearGradient>
    </defs>
    <g id="README" stroke="none" stroke-width="1" fill="none" fill-rule="evenodd" stroke-opacity="0.3">
        <g id="a-mark" fill="url(#linearGradient-1)" stroke="#000000">
            <path d="M60,0.5 C76.4041599,0.5 91.2790366,7.17312834 102.052954,17.9470459 C112.826872,28.7209634 119.5,43.5958401 119.5,60 C119.5,76.4041599 112.826872,91.2790366 102.052954,102.052954 C91.2790366,112.826872 76.4041599,119.5 60,119.5 C43.5958401,119.5 28.7209634,112.826872 17.9470459,102.052954 C7.17312834,91.2790366 0.5,76.4041599 0.5,60 C0.5,43.5958401 7.17312834,28.7209634 17.9470459,17.9470459 C28.7209634,7.17312834 43.5958401,0.5 60,0.5 Z M70.3505433,94.8270513 L49.6506386,94.8270513 L49.6506386,103.707013 L70.3505433,103.707013 L70.3505433,94.8270513 Z M60.0002033,12.9631067 L49.5728901,31.0232131 L59.4228508,48.083345 L49.2842565,65.6454181 L69.5614784,65.6454181 L79.4114311,82.705536 L100.266032,82.705536 L60.0002033,12.9631067 Z M30.4501428,64.1454401 L19.7341523,82.705536 L41.1661333,82.705536 L30.4501428,64.1454401 Z M30.4501428,30.0242201 L19.7341523,48.5843156 L41.1661333,48.5843156 L30.4501428,30.0242201 Z" id="custom-style-booo"></path>
        </g>
    </g>
</svg>